<svg width="24" height="24" viewBox="0 0 24 24" fill="none" xmlns="http://www.w3.org/2000/svg">
<g clip-path="url(#clip0)">
<path fill-rule="evenodd" clip-rule="evenodd" d="M12.2375 10.2838V14.3999H19.0433C18.767 16.1667 16.9851 19.5749 12.2375 19.5749C8.14088 19.5749 4.79862 16.1817 4.79862 11.9997C4.79862 7.81812 8.14088 4.4249 12.2375 4.4249C14.5672 4.4249 16.1285 5.41925 17.0196 6.27586L20.2778 3.13955C18.1872 1.18096 15.4778 -0.00119019 12.2392 -0.00119019C5.60607 -0.00119019 0.23877 5.36611 0.23877 11.9993C0.23877 18.6324 5.60607 23.9997 12.2392 23.9997C19.1634 23.9997 23.7613 19.1294 23.7613 12.2752C23.7613 11.4877 23.6772 10.888 23.5735 10.2878L12.2392 10.283L12.2375 10.2839V10.2838Z" fill="currentColor"/>
</g>
<defs>
<clipPath id="clip0">
<rect width="24" height="24" fill="white"/>
</clipPath>
</defs>
</svg>
